<?xml version="1.0" encoding="utf-8"?>
<!-- Svg Vector Icons : http://www.onlinewebfonts.com/icon -->
<!DOCTYPE svg PUBLIC "-//W3C//DTD SVG 1.1//EN" "http://www.w3.org/Graphics/SVG/1.1/DTD/svg11.dtd">
<svg version="1.1" xmlns="http://www.w3.org/2000/svg" xmlns:xlink="http://www.w3.org/1999/xlink" x="0px" y="0px" viewBox="0 0 1000 1000" enable-background="new 0 0 1000 1000" xml:space="preserve">
<metadata> Svg Vector Icons : http://www.onlinewebfonts.com/icon </metadata>
<g><g transform="translate(0.000000,511.000000) scale(0.100000,-0.100000)"><path d="M4037.7,4591.1c-252.3-52.8-457.7-142.8-694.4-303.2c-127.1-88-146.7-93.9-293.4-103.7c-491-35.2-970.2-356-1338-894c-62.6-91.9-129.1-195.6-146.7-228.9c-19.6-39.1-60.6-76.3-99.8-91.9c-176-74.3-414.7-281.7-551.6-481.2c-201.5-295.4-358-760.9-406.9-1212.8c-13.7-119.3-21.5-135-117.4-236.7C178.3,817.8,98.1,571.3,100,160.5C102-277.7,193.9-622,358.2-794.1c39.1-41.1,428.4-379.5,866.6-755.1c436.2-373.6,802-694.4,809.8-712c9.8-17.6,21.5-230.8,27.4-473.4c9.8-424.5,11.7-444,60.6-549.7c97.8-207.4,279.7-361.9,496.9-418.6c93.9-23.5,240.6-29.3,757-29.3h641.6l451.9-332.5c397.1-293.4,459.7-332.5,526.2-332.5s127.1,39.1,524.2,330.6l449.9,332.5l682.7,5.9l680.7,5.9l113.4,52.8c146.7,68.5,313,228.9,379.5,365.8c52.8,107.6,54.8,119.3,64.6,549.7c7.8,340.4,15.6,451.9,39.1,491c15.6,29.3,399.1,361.9,850.9,739.4c807.9,676.8,911.5,772.7,976.1,909.6c86.1,183.9,160.4,669,138.9,911.6c-29.3,334.5-117.4,555.5-293.4,741.4c-95.9,101.7-103.7,117.4-117.4,236.7c-48.9,451.9-205.4,917.4-406.9,1212.8c-136.9,199.5-375.6,406.9-551.6,481.2c-39.1,15.6-80.2,52.8-99.7,91.9c-17.6,33.3-84.1,136.9-146.7,228.9c-367.8,537.9-847,858.7-1338,894c-146.7,9.8-166.3,15.6-293.4,103.7c-254.3,172.1-492.9,269.9-759,313c-191.7,31.3-590.8,15.7-760.9-29.3c-127.2-33.3-138.9-33.3-264.1,0C4689.1,4618.5,4215.7,4630.2,4037.7,4591.1z M4738,4180.3l43-13.7v-2048c0-2310.2-9.8-2155.6,146.7-2210.4c68.5-23.5,88-21.5,152.6,3.9c138.9,58.7,131.1-66.5,131.1,2212.4v2042.2l45,11.7c23.5,7.8,131.1,19.6,240.6,25.4c228.9,13.7,410.8-13.7,594.7-86.1c123.2-48.9,391.2-207.3,391.2-232.8c0-5.9-180-874.4-401-1926.8c-221-1054.3-401-1942.4-401-1973.7c0-37.1,21.5-82.2,56.7-121.3c48.9-54.8,70.4-64.6,146.7-64.6c70.4,0,99.8,11.7,140.8,52.8c48.9,48.9,78.3,176,455.8,1979.6c223,1060.2,408.8,1930.7,414.7,1936.6c23.5,25.4,287.5-52.8,432.3-129.1c203.4-103.7,467.5-359.9,629.9-606.4c60.6-93.9,115.4-183.9,119.3-197.6c5.9-13.7-318.8-727.7-723.8-1586.4C6846.7,166.4,6619.8-334.4,6619.8-379.4c0-45,17.6-86.1,56.7-129.1c48.9-54.8,70.4-64.6,146.7-64.6c68.5,0,99.8,11.7,136.9,48.9c25.4,27.4,287.5,559.5,579,1183.5c293.4,624,612.3,1304.7,708.1,1512.1c97.8,205.4,185.8,375.6,195.6,375.6c9.8,0,82.2-64.6,162.4-144.7c242.6-242.6,397.1-620.1,459.7-1122.8c19.6-148.7,17.6-187.8-3.9-215.2c-13.7-17.6-395.1-477.3-847-1021.1C7762.1-500.7,7378.7-976,7359.2-1013.2c-68.5-131.1,35.2-293.4,185.8-293.4c25.4,0,74.3,19.6,107.6,45c35.2,23.5,414.7,469.5,847,991.7c432.3,522.3,796.1,960.5,809.8,976.1c21.5,21.5,33.3,9.8,76.3-62.6c76.3-131.1,115.4-340.4,99.7-541.8c-13.7-189.8-74.3-483.2-111.5-555.5c-13.7-25.4-395.1-356-847-735.5c-451.8-379.5-847-719.9-878.3-759c-29.3-41.1-78.2-121.3-107.6-180c-48.9-103.7-50.8-121.3-60.6-561.4c-13.7-629.9,2-612.3-547.7-612.3h-361.9l72.4,64.5c129.1,111.5,142.8,242.6,31.3,336.5c-39.1,33.3-80.2,48.9-133,48.9c-78.2,0-76.3,2-1251.9-866.6c-156.5-115.4-287.6-209.3-293.4-209.3s-136.9,93.9-293.4,209.3c-1175.6,868.5-1173.7,866.6-1251.9,866.6c-142.8,0-254.3-158.4-195.6-275.8c11.7-25.4,54.8-76.3,93.9-109.6l72.4-64.5h-383.4c-567.3,0-563.4-5.9-563.4,620.1c-2,428.4-13.7,500.8-115.4,669c-37.2,58.7-309.1,305.2-874.4,788.3c-451.9,387.3-837.2,729.6-856.8,759c-45,70.4-107.6,363.8-123.2,569.2c-13.7,199.5,25.4,410.8,101.7,541.8c50.9,86.1,52.8,88,84.1,50.9C1242.4,17.7,2330-1267.5,2365.2-1283.1c176-80.2,356,101.7,268,269.9c-19.6,37.2-410.8,520.3-872.4,1073.9c-459.7,553.6-841.1,1017.2-847,1030.9c-3.9,13.7,5.9,125.2,23.5,250.4c64.5,475.3,211.3,817.7,451.9,1064.1c76.3,76.3,148.7,140.8,158.4,140.8c11.7,0,338.4-680.7,727.7-1510.1c391.2-831.3,731.6-1533.6,757-1561c37.2-37.2,68.5-48.9,136.9-48.9c76.3,0,97.8,9.8,146.7,64.6c39.1,43,56.7,84.1,56.7,127.1c0,45-230.8,557.5-735.5,1629.4L1903.6,2811l43,78.3c170.2,309.1,467.5,620.1,719.8,751.1c142.8,74.3,406.9,152.6,430.3,127.1c5.9-5.9,191.7-876.3,412.7-1936.6C3889,25.5,3916.4-99.7,3967.3-148.6c41.1-41.1,70.4-52.8,140.8-52.8c76.3,0,97.8,9.8,146.7,64.6c35.2,39.1,56.7,84.1,56.7,121.3c0,31.3-181.9,921.3-403,1979.6l-403,1922.9l56.7,45c131.1,105.6,346.2,203.4,543.8,250.4C4225.5,4209.7,4644.1,4207.7,4738,4180.3z"/></g></g>
</svg>