<?xml version="1.0"?>
<svg xmlns="http://www.w3.org/2000/svg" viewBox="0 0 32 32">
    <path style="text-indent:0;text-align:start;line-height:normal;text-transform:none;block-progression:tb;-inkscape-font-specification:Sans" d="M 14.8125 3.9375 L 14.4375 4.15625 L 11.4375 6.15625 L 11.03125 6.4375 L 11 6.9375 C 10.213862 18.237391 3.40625 23.1875 3.40625 23.1875 L 1.9375 24.28125 L 3.65625 24.9375 L 16.5625 29.90625 L 16.625 29.9375 L 17.0625 30.15625 L 17.53125 29.84375 L 28.53125 22.84375 L 29 22.5625 L 29 22 L 29 8 L 29 7.21875 L 28.21875 7.03125 L 15.21875 4.03125 L 14.8125 3.9375 z M 15.21875 6.0625 L 25.59375 8.46875 L 24.8125 8.9375 L 14.5 6.5625 L 15.21875 6.0625 z M 12.875 8.21875 L 23.90625 10.78125 C 23.309499 16.901591 21.467923 21.219999 19.75 24.03125 C 18.478111 26.1126 17.351944 27.300908 16.78125 27.84375 L 5.84375 23.625 C 7.9318641 21.526501 11.971926 16.485895 12.875 8.21875 z M 27 9.9375 L 27 21.46875 L 21.59375 24.90625 C 23.453183 21.803487 25.35976 17.073201 25.9375 10.59375 L 27 9.9375 z" overflow="visible" font-family="Sans"/>
</svg>
